<svg style="position: absolute; width: 0; height: 0; overflow: hidden;" version="1.1" xmlns="http://www.w3.org/2000/svg">
<defs>
<symbol id="icon-like" viewBox="0 0 32 32">
<title>like</title>
<path d="M26.333 11.556h-8.186l1.238-6.072c0.026-0.13 0.045-0.34 0.045-0.483 0 0 0.305-2.616-1.778-2.764-0.389-0.028-0.586 0.164-0.847 0.361-2.296 1.724-7.955 8.142-7.955 8.142-0.468 0.474-0.852 1.103-0.852 1.816v12.963c0 1.433 1.346 2.926 2.778 2.926h11.667c1.076 0 2-0.851 2.389-1.778 0 0 3.846-9.305 4.080-12.61 0.1-1.418-1.148-2.501-2.58-2.501zM23.449 24.788c-0.293 0.7-1.030 0.989-1.842 0.989h-8.8c-1.080 0-2.14-0.468-2.14-1.548v-10.667c0-0.538 0.313-1.027 0.665-1.383l5.733-6.694-1.365 7.848h8.842c1.081 0 1.956-0.144 1.956 0.936l-3.048 10.519z"></path>
<path d="M4.972 11.556h-0.167c-0.69 0-1.25 0.746-1.25 1.667v13.556c0 0.921 0.56 1.667 1.25 1.667h0.167c0.69 0 1.25-0.746 1.25-1.667v-13.556c0-0.921-0.56-1.667-1.25-1.667z"></path>
</symbol>
<symbol id="icon-mark" viewBox="0 0 32 32">
<title>mark</title>
<path d="M4.444 0.889v30.222l11.551-11.34 11.56 11.34v-30.222h-23.111zM25.778 27.556l-9.778-9.656-9.778 9.656v-24.889h19.556v24.889z"></path>
</symbol>
<symbol id="icon-mas-accesos" viewBox="0 0 32 32">
<title>mas-accesos</title>
<path fill="#ced5d8" style="fill: var(--color1, #ced5d8)" d="M32 16c0 8.837-7.163 16-16 16s-16-7.163-16-16c0-8.837 7.163-16 16-16s16 7.163 16 16z"></path>
<path fill="#fff" style="fill: var(--color2, #fff)" d="M16.82 15.181v-6.563c0-0.439-0.367-0.813-0.82-0.813-0.456 0-0.819 0.364-0.819 0.813v6.563h-6.563c-0.439 0-0.813 0.367-0.813 0.819 0 0.456 0.364 0.819 0.813 0.819h6.563v6.563c0 0.439 0.367 0.813 0.819 0.813 0.456 0 0.819-0.364 0.819-0.813v-6.563h6.563c0.439 0 0.813-0.367 0.813-0.819 0-0.456-0.364-0.819-0.813-0.819h-6.563z"></path>
</symbol>
<symbol id="icon-noticias" viewBox="0 0 32 32">
<title>noticias</title>
<path fill="#ced5d8" opacity="0.3" style="fill: var(--color1, #ced5d8)" d="M32 16c0 8.837-7.163 16-16 16s-16-7.163-16-16c0-8.837 7.163-16 16-16s16 7.163 16 16z"></path>
<path fill="#dd8f12" style="fill: var(--color3, #dd8f12)" d="M6.65 23.812h11.35v-2.8h-11.35z"></path>
<path fill="#ced5d8" style="fill: var(--color1, #ced5d8)" d="M19.75 23h5.6v-0.688h-5.6zM19.75 24.2h5.6v-0.688h-5.6zM19.75 21.7h5.6v-0.688h-5.6z"></path>
<path fill="#f0a81d" style="fill: var(--color4, #f0a81d)" d="M6.5 19.614v-8.848h19v8.848zM6 9.616h3.35v-2h-3.35z"></path>
<path fill="#ced5d8" style="fill: var(--color1, #ced5d8)" d="M11.35 9.616h14.65v-2h-14.65z"></path>
</symbol>
<symbol id="icon-directorio" viewBox="0 0 32 32">
<title>directorio</title>
<path fill="#ced5d8" opacity="0.3" style="fill: var(--color1, #ced5d8)" d="M32 16c0 8.837-7.163 16-16 16s-16-7.163-16-16c0-8.837 7.163-16 16-16s16 7.163 16 16z"></path>
<path fill="#f0a81d" style="fill: var(--color4, #f0a81d)" d="M8.018 8l-1.457 1.458v1.921h19.278v-1.921h-12.057l-1.193-1.458zM5.6 23.9h21.2v-12.521h-21.2z"></path>
<path fill="#fff" style="fill: var(--color2, #fff)" d="M7.753 11.379h16.86v-0.961h-16.86z"></path>
</symbol>
<symbol id="icon-calendario" viewBox="0 0 32 32">
<title>calendario</title>
<path fill="#ced5d8" opacity="0.3" style="fill: var(--color1, #ced5d8)" d="M32 16c0 8.837-7.163 16-16 16s-16-7.163-16-16c0-8.837 7.163-16 16-16s16 7.163 16 16z"></path>
<path fill="#f0a81d" style="fill: var(--color4, #f0a81d)" d="M6.496 8.808c-0.272 0-0.496 0.193-0.496 0.429v14.841h19.811v-14.836c0-0.241-0.224-0.434-0.496-0.434h-18.819z"></path>
<path fill="#dd8f12" style="fill: var(--color3, #dd8f12)" d="M6 7.638v3.922h19.81v-3.922z"></path>
<path fill="#fff" style="fill: var(--color2, #fff)" d="M14.489 14.834h2.826v-2.53h-2.826zM18.211 14.834h2.826v-2.53h-2.826zM21.932 14.834h2.826v-2.53h-2.826zM7.053 18.034h2.826v-2.529h-2.826z"></path>
<path fill="#092c3c" style="fill: var(--color5, #092c3c)" d="M10.774 18.034h2.826v-2.529h-2.826z"></path>
<path fill="#fff" style="fill: var(--color2, #fff)" d="M14.489 18.034h2.826v-2.529h-2.826zM18.211 18.034h2.826v-2.529h-2.826zM21.932 18.034h2.826v-2.529h-2.826zM7.053 21.229h2.826v-2.529h-2.826zM10.774 21.229h2.826v-2.529h-2.826zM14.489 21.229h2.826v-2.529h-2.826zM18.211 21.229h2.826v-2.529h-2.826zM21.932 21.229h2.826v-2.529h-2.826zM22.126 8.566c0.565 0 1.022 0.458 1.022 1.022s-0.458 1.022-1.022 1.022c-0.565 0-1.022-0.458-1.022-1.022s0.458-1.022 1.022-1.022zM9.685 8.566c0.565 0 1.022 0.458 1.022 1.022s-0.458 1.022-1.022 1.022c-0.565 0-1.022-0.458-1.022-1.022s0.458-1.022 1.022-1.022z"></path>
</symbol>
<symbol id="icon-descargas" viewBox="0 0 32 32">
<title>descargas</title>
<path fill="#ced5d8" opacity="0.3" style="fill: var(--color1, #ced5d8)" d="M32 16c0 8.837-7.163 16-16 16s-16-7.163-16-16c0-8.837 7.163-16 16-16s16 7.163 16 16z"></path>
<path fill="#f0a81d" style="fill: var(--color4, #f0a81d)" d="M21.441 10.57h-0.259c-0.266-1.096-1.239-1.898-2.399-1.899-0.284 0-0.555 0.050-0.808 0.138-0.571-1.628-2.117-2.796-3.939-2.796-2.307 0-4.178 1.87-4.178 4.177 0 0.146 0.008 0.289 0.022 0.43-1.517 0.262-2.68 1.589-2.68 3.178 0 1.776 1.452 3.228 3.228 3.228h11.013c1.775 0 3.228-1.452 3.228-3.228s-1.453-3.228-3.228-3.228zM21.756 21.617l-1.551 1.582v-3.816h-1.447v3.816l-1.551-1.582-1.033 1.008 3.308 3.372 3.307-3.372z"></path>
<path fill="#092c3c" style="fill: var(--color5, #092c3c)" d="M11.192 18.734l1.551-1.582v3.816h1.447v-3.816l1.552 1.582 1.033-1.008-3.308-3.372-3.307 3.372z"></path>
</symbol>
<symbol id="icon-correo" viewBox="0 0 32 32">
<title>correo</title>
<path fill="#ced5d8" opacity="0.3" style="fill: var(--color1, #ced5d8)" d="M32 16c0 8.837-7.163 16-16 16s-16-7.163-16-16c0-8.837 7.163-16 16-16s16 7.163 16 16z"></path>
<path fill="#f0a81d" style="fill: var(--color4, #f0a81d)" d="M6 25.075l10-5.906-10-5.906zM16 19.169l10 5.906v-11.813z"></path>
<path fill="#f1b95b" style="fill: var(--color6, #f1b95b)" d="M6 25.075h20l-10-5.906z"></path>
<path fill="#fff" style="fill: var(--color2, #fff)" d="M7.812 7.2v7.094l8.188 4.875 8.188-4.844v-7.125z"></path>
<path fill="#dd8f12" style="fill: var(--color3, #dd8f12)" d="M6 13.262l1.812 1.063v-2.438zM24.188 14.325l1.812-1.063-1.812-1.375z"></path>
</symbol>
<symbol id="icon-viajes" viewBox="0 0 32 32">
<title>viajes</title>
<path fill="#ced5d8" opacity="0.3" style="fill: var(--color1, #ced5d8)" d="M32 16c0 8.837-7.163 16-16 16s-16-7.163-16-16c0-8.837 7.163-16 16-16s16 7.163 16 16z"></path>
<path fill="#f0a81d" style="fill: var(--color4, #f0a81d)" d="M15.883 25.6c-5.229 0-9.483-4.254-9.483-9.483s4.254-9.483 9.483-9.483c5.229 0 9.483 4.254 9.483 9.483s-4.254 9.483-9.483 9.483z"></path>
<path fill="#fefbf6" style="fill: var(--color7, #fefbf6)" d="M16.234 15.766v-4.917h4.027c0.528 1.416 0.848 3.102 0.885 4.917h-4.912zM20.261 21.386h-4.027v-4.918h4.912c-0.037 1.814-0.357 3.5-0.885 4.917zM16.234 25.576v-3.488h3.738c-0.897 1.988-2.232 3.309-3.738 3.488zM16.234 6.658c1.506 0.179 2.84 1.501 3.738 3.489h-3.738v-3.489zM15.532 10.146h-3.738c0.897-1.988 2.232-3.31 3.738-3.489v3.489zM15.532 15.766h-4.912c0.037-1.814 0.357-3.5 0.885-4.917h4.027v4.917zM15.532 21.385h-4.027c-0.528-1.417-0.848-3.103-0.885-4.917h4.912v4.917zM15.532 25.576c-1.506-0.179-2.84-1.501-3.738-3.488h3.738v3.488zM20.991 10.849h2.772c-0.182-0.27-0.353-0.499-0.533-0.72l-2.514 0.017c-0.558-1.312-1.297-2.386-2.151-3.123-0.803-0.247-1.726-0.389-2.682-0.389s-1.879 0.142-2.749 0.406c-0.787 0.719-1.525 1.794-2.084 3.106h-2.527c-0.184 0.226-0.358 0.46-0.52 0.703h2.772c-0.514 1.444-0.822 3.122-0.858 4.917h-3.508c-0.004 0.117-0.009 0.234-0.009 0.351s0.005 0.234 0.009 0.351h3.508c0.036 1.794 0.344 3.473 0.858 4.917h-2.772c0.162 0.242 0.336 0.476 0.52 0.702h2.527c0.559 1.312 1.297 2.386 2.151 3.123 0.803 0.247 1.726 0.389 2.682 0.389s1.879-0.142 2.749-0.406c0.787-0.719 1.525-1.794 2.084-3.106h2.527c0.184-0.226 0.358-0.46 0.52-0.702h-2.772c0.514-1.444 0.822-3.123 0.857-4.917h3.509c0.004-0.117 0.009-0.233 0.009-0.351s-0.005-0.234-0.009-0.351h-3.509c-0.036-1.794-0.344-3.473-0.857-4.917z"></path>
<path fill="#fefbf6" style="fill: var(--color7, #fefbf6)" d="M15.532 25.576c-1.506-0.179-2.84-1.501-3.738-3.488h3.738v3.488zM16.701 25.56c0.261-0.022 0.483-0.050 0.702-0.085 0.162-0.026 0.322-0.057 0.481-0.091-0.013 0.001 0.035-0.009 0.084-0.020 0.186-0.042 0.369-0.089 0.55-0.142l0.046-0.012c0.778-0.672 1.458-1.626 1.996-2.782-0.085 0.002-0.168 0.011-0.254 0.011-0.167 0-0.332-0.005-0.497-0.013-0.892 1.798-2.159 2.982-3.577 3.15v-3.488h1.524c-0.847-0.24-1.586-0.563-2.27-0.969l0.043 0.266h-4.027c-0.528-1.417-0.848-3.103-0.885-4.917h0.883c-0.092-0.23-0.178-0.464-0.252-0.702h-0.631c0.016-0.815 0.093-1.602 0.217-2.353-0.007-0.136-0.011-0.296-0.011-0.457 0-1.709 0.457-3.312 1.256-4.692-0.402 0.585-0.742 1.2-1.032 1.882h-2.516c-0.062 0.076-0.123 0.154-0.183 0.232-0.075 0.098-0.149 0.197-0.22 0.298-0.040 0.056-0.077 0.115-0.116 0.172h2.76c-0.514 1.444-0.822 3.123-0.857 4.917h-3.504c-0.004 0.117-0.014 0.233-0.014 0.351s0.005 0.234 0.009 0.351h3.508c0.036 1.794 0.344 3.473 0.858 4.917h-2.772c0.162 0.242 0.336 0.476 0.52 0.702h2.527c0.559 1.312 1.297 2.386 2.151 3.123 0.209 0.062 0.421 0.116 0.635 0.164l0.019 0.004c0.214 0.047 0.431 0.087 0.65 0.12l0.028 0.003c0.191 0.028 0.385 0.048 0.58 0.064 0.23 0.021 0.498 0.033 0.769 0.034 0.217 0 0.431-0.009 0.643-0.024 0.059-0.004 0.118-0.010 0.176-0.016z"></path>
</symbol>
<symbol id="icon-audiencias" viewBox="0 0 32 32">
<title>audiencias</title>
<path fill="#ced5d8" opacity="0.3" style="fill: var(--color1, #ced5d8)" d="M32 16c0 8.837-7.163 16-16 16s-16-7.163-16-16c0-8.837 7.163-16 16-16s16 7.163 16 16z"></path>
<path fill="#f0a81d" style="fill: var(--color4, #f0a81d)" d="M9.53 24.45h2.128v-6.742h-2.128z"></path>
<path fill="#092c3c" style="fill: var(--color5, #092c3c)" d="M6 24.511h2.128v-4.009h-2.128zM13.060 24.511h2.128v-10.508h-2.128z"></path>
<path fill="#f0a81d" style="fill: var(--color4, #f0a81d)" d="M16.538 24.45h2.128v-17.25h-2.128z"></path>
<path fill="#092c3c" style="fill: var(--color5, #092c3c)" d="M20.068 24.511h2.128v-13.788h-2.128z"></path>
<path fill="#f0a81d" style="fill: var(--color4, #f0a81d)" d="M23.598 24.511h2.128v-8.26h-2.128z"></path>
</symbol>
<symbol id="icon-plus" viewBox="0 0 32 32">
<title>plus</title>
<path d="M16 0h0.003c0.855 0 1.548 0.693 1.548 1.548v27.872c0 0.855-0.693 1.548-1.548 1.548h-0.003c-0.855 0-1.548-0.693-1.548-1.548v-27.872c0-0.855 0.693-1.548 1.548-1.548z"></path>
<path d="M31.485 15.485v0.003c0 0.855-0.693 1.548-1.548 1.548h-27.872c-0.855 0-1.548-0.693-1.548-1.548v-0.003c0-0.855 0.693-1.548 1.548-1.548h27.872c0.855 0 1.548 0.693 1.548 1.548z"></path>
</symbol>
<symbol id="icon-comentarios" viewBox="0 0 33 32">
<title>comentarios</title>
<path d="M31.304 20.648c0 1.137-0.956 2.098-2.087 2.098h-13.994l-1.53 0.181-4.302 5.594v-5.252c0 0 0 0 0 0 0-0.288-0.233-0.522-0.522-0.523h-4.696c-1.131 0-2.087-0.96-2.087-2.098v-16.463c0-1.138 0.956-2.098 2.087-2.098h25.043c1.131 0 2.087 0.96 2.087 2.098v16.462zM30.052 0h-26.713c-1.809 0-3.339 1.53-3.339 3.339v18.365c0 1.809 1.53 3.339 3.339 3.339h4.452v5.565c0 0 0 0.001 0 0.001 0 0.307 0.249 0.557 0.557 0.557 0.163 0 0.31-0.070 0.411-0.182l5.399-5.941h15.894c1.809 0 3.339-1.53 3.339-3.339v-18.365c0-1.809-1.53-3.339-3.339-3.339z"></path>
</symbol>
<symbol id="icon-share" viewBox="0 0 32 32">
<title>share</title>
<path d="M15.978 17.958c-0.001 0-0.003 0-0.005 0-5.42 0-10.283 2.384-13.599 6.16 1.646-7.116 8.060-12.444 15.696-12.444h0.968v-6.998l10.223 10.223-10.223 10.223v-6.92l-0.849-0.106c-0.664-0.087-1.432-0.136-2.212-0.136zM32 14.897l-14.897-14.897v9.76c-4.636 0.242-8.77 2.209-11.81 5.265-3.27 3.253-5.293 7.755-5.293 12.729 0 0.018 0 0.036 0 0.053v3.775l1.817-3.311c2.801-5.031 8.087-8.378 14.155-8.378 0.398 0 0.793 0.014 1.184 0.043l-0.052 9.859 14.897-14.898z"></path>
</symbol>
<symbol id="icon-cake" viewBox="0 0 33 32">
<title>cake</title>
<path d="M18.799 7.837h-18.799v15.985l20.487 7.605s3.829 0.602 6.983-0.154c3.157-0.758 3.298-1.553 3.298-1.553 0.975-0.811 1.677-2.578 1.687-3.845l0.111-14.613c0-0.010 0-0.022 0-0.035 0-1.713-1.271-3.13-2.922-3.358-0.007 0.127-0.001 0.276-0.001 0.428 0 3-2.432 5.432-5.432 5.432s-5.432-2.432-5.432-5.432c0-0.162 0.007-0.323 0.021-0.481zM1.707 9.233l18.934 6.983v4.657l-18.934-6.984v-4.656zM1.707 17.925l18.934 6.983v4.657l-18.934-6.984v-4.656zM24.21 12.027c2.143 0 3.88-1.737 3.88-3.88s-1.737-3.88-3.88-3.88c-2.143 0-3.88 1.737-3.88 3.88s1.737 3.88 3.88 3.88zM24.246 2.134c-0.221-1.105-1.066-2.134-1.066-2.134h2.133v3.2c0 1.517-1.066 0-1.066 0s0.221 0.037 0-1.066z"></path>
</symbol>
<symbol id="icon-combined-shape" viewBox="0 0 48 32">
<title>combined-shape</title>
<path d="M26.237 3.272c11.322 0.744 20.163 7.304 20.163 22.328h-44.8c0-15.024 8.842-21.584 20.163-22.328-0.103-0.258-0.163-0.557-0.163-0.87 0-1.325 1.075-2.4 2.4-2.4s2.4 1.075 2.4 2.4c0 0.313-0.060 0.612-0.169 0.886zM0 29.6c0 0 0-0 0-0 0-1.325 1.075-2.4 2.4-2.4 0.005 0 0.009 0 0.014 0h43.174c1.325 0 2.4 1.075 2.4 2.4s-1.075 2.4-2.4 2.4h-43.174c-0.004 0-0.008 0-0.013 0-1.325 0-2.4-1.075-2.4-2.4 0 0 0-0 0-0z"></path>
</symbol>
<symbol id="icon-guarniciones" viewBox="0 0 30 32">
<title>guarniciones</title>
<path d="M8.459 14.483l1.193-6.779 2.799 0.583-1.614-5.916 3.556-1.185 3.413 13.655c-1.111 0.113-2.287 0.177-3.52 0.173l-1.801-6.598-0.59 6.504c-1.111-0.083-2.259-0.225-3.437-0.437zM20.136 14.524l0.604-0.302 1.778-8.296h-2.37l-1.657 8.838c0.568-0.069 1.116-0.149 1.645-0.239zM20.994 14.367l4.421-14.367 3.556 1.185-3.556 10.667-0.798 1.595c-1.037 0.326-2.254 0.652-3.623 0.92zM7.969 14.391l-4.243-13.205-3.556 1.185 3.556 10.667 1.131 0.587c1.057 0.314 2.095 0.567 3.112 0.766zM12.452 8.287l0.045 0.009-0.011 0.119-0.036-0.128zM15.578 3.556h3.556l-0.593 9.481-2.963-9.481zM4.911 3.556h3.556v9.481l-3.556-9.481z"></path>
<path d="M28.787 12.353l-4.913 19.647h-18.963l-4.911-19.647c4.064 1.924 9.031 3.054 14.393 3.054 5.363 0 10.33-1.131 14.394-3.054z"></path>
</symbol>
<symbol id="icon-salads" viewBox="0 0 35 32">
<title>salads</title>
<path d="M21.175 16c-0.433 1.761-1.575 2.667-1.575 2.667s-1.223 0.034-2.555-0.785l0.462-0.081s0.594-0.753 1.022-1.801h2.647zM21.335 14.857c0.030-0.791-0.093-1.703-0.467-2.731-1.563-4.296-5.958-6.345-5.958-6.345s-2.049 4.394-0.486 8.69c0.048 0.133 0.098 0.262 0.151 0.386h3.237c0.018-0.147 0.028-0.317 0.028-0.489 0-0.262-0.023-0.519-0.068-0.769-0.419-2.376-1.865-4.873-1.865-4.873s2.617 2.566 2.994 4.702c0.085 0.48 0.061 0.966-0.027 1.43h2.461zM15.167 16c0.459 0.721 0.983 1.248 1.506 1.632 0.347-0.47 0.641-1.009 0.855-1.587l-2.361-0.045z"></path>
<path d="M5.69 16c1.944 1.92 3.986 2.568 5.565 2.729-0.167-1.049-0.392-1.968-0.683-2.858l-4.88 0.129zM4.671 14.857c-0.114-0.145-0.229-0.295-0.341-0.449-4.255-5.856-3.054-13.439-3.054-13.439s7.583 1.2 11.837 7.057c1.905 2.621 2.29 5.001 2.134 6.831h-3.889c-0.399-1.19-0.865-2.212-1.422-3.175-2.242-3.877-7.231-8.254-7.231-8.254s3.714 4.454 6.286 8.907c0.499 0.865 0.897 1.714 1.213 2.521h-5.531zM15.073 16c-0.353 1.584-1.033 2.537-1.033 2.537s-0.689 0.217-1.768 0.235c-0.152-1.077-0.35-2.015-0.605-2.929l3.407 0.157z"></path>
<path d="M27.314 29.502c4.6-2.87 7.684-7.798 7.961-13.463l-33.561-0.039c0.279 5.719 3.379 10.658 7.928 13.483l0.072 2.517h17.6v-2.498z"></path>
</symbol>
<symbol id="icon-salsa" viewBox="0 0 51 32">
<title>salsa</title>
<path d="M31.95 23.588c0.020-0.003 0.040-0.007 0.050-0.009 1.684 1.684 15.158 0 18.526-15.158 0-4.071-3.279-3.769-6.316-2.617 0.216-1.064 0.106-1.908-0.421-2.435-3.368-1.684-5.053 3.368-21.895 1.684-18.526-8.421-21.462-0.721-21.462-0.721-0.253 0.376-0.118 0.931 0.269 1.189l4.35 2.9c5.053 15.158 10.105 16.842 11.768 16.774 0.198 0.554 0.348 1.131 0.451 1.782-1.263 0.182-2.516 1.177-2.917 2.378l-0.079 0.236c-0.445 1.337 0.327 2.408 1.718 2.408h15.171c1.374 0 2.161-1.078 1.716-2.408l-0.077-0.236c-0.35-1.048-1.337-1.932-2.419-2.265-0.025-0.045-0.049-0.093-0.069-0.143-0.13-0.312-0.106-1.342 0-1.684 0.527-0.527 1.069-1.086 1.625-1.674zM34.742 20.49c2.771-3.197 5.494-6.747 7.325-9.827 2.142-1.071 5.091-1.447 5.091 1.127 0 1.511-3.761 6.090-8.421 8.421-2.043 1.021-3.266 0.825-3.995 0.28z"></path>
</symbol>
</defs>
</svg>
